HIERARCHY
ROOT root
{
	OFFSET 0.000000 0.000000 0.000000
	CHANNELS 6 Xposition Yposition Zposition Zrotation Yrotation Xrotation
	JOINT lhip
	{
		OFFSET 0.058581 -0.082280 -0.017664
		CHANNELS 3 Zrotation Yrotation Xrotation
		JOINT lknee
		{
			OFFSET 0.043451 -0.386469 0.008037
			CHANNELS 3 Zrotation Yrotation Xrotation
			JOINT lankle
			{
				OFFSET -0.014790 -0.426874 -0.037428
				CHANNELS 3 Zrotation Yrotation Xrotation
				JOINT ltoe
				{
					OFFSET 0.041054 -0.060286 0.122042
					CHANNELS 3 Zrotation Yrotation Xrotation
					End Site
					{
						OFFSET 0.000000 0.000000 0.000000
					}
				}
			}
		}
	}
	JOINT rhip
	{
		OFFSET -0.060310 -0.090513 -0.013543
		CHANNELS 3 Zrotation Yrotation Xrotation
		JOINT rknee
		{
			OFFSET -0.043257 -0.383688 -0.004843
			CHANNELS 3 Zrotation Yrotation Xrotation
			JOINT rankle
			{
				OFFSET 0.019056 -0.420046 -0.034562
				CHANNELS 3 Zrotation Yrotation Xrotation
				JOINT rtoe
				{
					OFFSET -0.034840 -0.062106 0.130323
					CHANNELS 3 Zrotation Yrotation Xrotation
					End Site
					{
						OFFSET 0.000000 0.000000 0.000000
					}
				}
			}
		}
	}
	JOINT lowerback
	{
		OFFSET 0.004439 0.124404 -0.038385
		CHANNELS 3 Zrotation Yrotation Xrotation
		JOINT upperback
		{
			OFFSET 0.004488 0.137956 0.026820
			CHANNELS 3 Zrotation Yrotation Xrotation
			JOINT chest
			{
				OFFSET -0.002265 0.056032 0.002855
				CHANNELS 3 Zrotation Yrotation Xrotation
				JOINT lowerneck
				{
					OFFSET -0.013390 0.211636 -0.033468
					CHANNELS 3 Zrotation Yrotation Xrotation
					JOINT upperneck
					{
						OFFSET 0.010113 0.088937 0.050410
						CHANNELS 3 Zrotation Yrotation Xrotation
						End Site
						{
							OFFSET 0.000000 0.000000 0.000000
						}
					}
				}
				JOINT lclavicle
				{
					OFFSET 0.071702 0.114000 -0.018898
					CHANNELS 3 Zrotation Yrotation Xrotation
					JOINT lshoulder
					{
						OFFSET 0.122921 0.045205 -0.019046
						CHANNELS 3 Zrotation Yrotation Xrotation
						JOINT lelbow
						{
							OFFSET 0.255332 -0.015649 -0.022946
							CHANNELS 3 Zrotation Yrotation Xrotation
							JOINT lwrist
							{
								OFFSET 0.265709 0.012698 -0.007375
								CHANNELS 3 Zrotation Yrotation Xrotation
								End Site
								{
									OFFSET 0.000000 0.000000 0.000000
								}
							}
						}
					}
				}
				JOINT rclavicle
				{
					OFFSET -0.082954 0.112472 -0.023707
					CHANNELS 3 Zrotation Yrotation Xrotation
					JOINT rshoulder
					{
						OFFSET -0.113228 0.046853 -0.008472
						CHANNELS 3 Zrotation Yrotation Xrotation
						JOINT relbow
						{
							OFFSET -0.260127 -0.014369 -0.031269
							CHANNELS 3 Zrotation Yrotation Xrotation
							JOINT rwrist
							{
								OFFSET -0.269108 0.006794 -0.006027
								CHANNELS 3 Zrotation Yrotation Xrotation
								End Site
								{
									OFFSET 0.000000 0.000000 0.000000
								}
							}
						}
					}
				}
			}
		}
	}
}
MOTION
Frames: 3
Frame Time: 0.033333
0.002949 0.492566 0.806261 -5.025702 -0.237410 82.142647 20.241626 10.206899 -23.809450 -13.096232 12.409595 65.228741 0.433521 4.376617 -41.280882 0.000000 -0.000000 0.000000 -14.831206 -6.926536 -33.010674 6.096633 -0.639349 71.233453 5.291407 -2.232486 -33.223436 0.000000 -0.000000 0.000000 -5.674331 2.726660 22.692692 3.919794 -1.491111 2.113669 0.888755 0.714465 -3.320452 5.206359 12.123457 -25.326301 -2.667469 -4.022152 15.209373 -16.636305 -24.718712 -6.025583 -15.204965 -28.619606 -5.391249 47.340662 -61.048893 -33.839556 17.819283 -35.112947 -6.522961 23.510966 32.062878 2.232195 12.043873 42.243994 -7.288417 -37.897941 48.158113 -20.987199 11.400804 12.348790 24.231633 
0.002777 0.491972 0.806044 -5.102711 -0.193301 82.232343 20.455488 10.153687 -23.759880 -12.763880 12.820278 65.238478 0.714356 3.974991 -41.442437 0.000000 -0.000000 0.000000 -15.032368 -6.742918 -33.031213 5.851867 -1.135147 71.219787 5.201486 -1.723047 -33.308206 0.000000 -0.000000 0.000000 -5.636118 2.841031 22.266310 4.046149 -1.586452 2.806313 0.734994 0.676104 -3.685020 5.370180 12.444296 -25.103578 -2.779788 -4.420404 14.920540 -16.658060 -24.663511 -6.011516 -15.063911 -28.682813 -4.981112 47.566560 -60.883538 -33.976861 17.750199 -35.194816 -6.536006 23.709194 32.138271 2.200701 12.012937 42.095732 -7.086969 -37.984389 48.242439 -20.666759 11.335007 12.388247 23.760581 
0.002569 0.491522 0.806165 -5.091418 -0.132518 82.201302 20.531710 10.183044 -23.676313 -12.831520 12.763459 65.255251 0.537096 3.900519 -41.227005 0.000000 -0.000000 0.000000 -15.037814 -6.839615 -32.891911 5.809307 -1.259166 71.195587 5.191178 -1.510760 -33.461180 0.000000 -0.000000 0.000000 -5.614162 2.867116 22.235010 4.091523 -1.621873 2.868951 0.712496 0.701001 -3.704266 5.456487 12.528807 -24.981883 -2.767552 -4.578318 14.841192 -16.629529 -24.599809 -6.184002 -15.216575 -28.760530 -4.777729 47.301361 -60.982087 -33.544157 17.645358 -35.068795 -6.752096 23.752285 32.024440 2.183241 12.086168 42.076005 -7.035917 -38.083099 48.392097 -20.558833 11.428686 12.160607 23.314148 
